<?xml version="1.0" encoding="utf-8"?>
<!-- Generator: Adobe Illustrator 16.0.0, SVG Export Plug-In . SVG Version: 6.00 Build 0)  -->
<!DOCTYPE svg PUBLIC "-//W3C//DTD SVG 1.1//EN" "http://www.w3.org/Graphics/SVG/1.1/DTD/svg11.dtd">
<svg version="1.1" id="Layer_1" xmlns="http://www.w3.org/2000/svg" xmlns:xlink="http://www.w3.org/1999/xlink" x="0px" y="0px"
	 width="100px" height="50px" viewBox="0 0 100 50" enable-background="new 0 0 100 50" xml:space="preserve">
<path fill="#3F2949" d="M26,2h5v1h2v1h1v1h-2V4h-3V3h-3V2z"/>
<path fill="#2A1A31" d="M25,3h4v1h-2v1h-1v1h-1v2h-2V6h1V4h1V3z"/>
<path fill="#2A1A31" d="M30,4h2v1h-2V4z"/>
<path fill="#2A1A31" d="M32,5h3v3h-2V6h-1V5z"/>
<path fill="#D6D5D0" d="M14,8h2v1h-1v1h-2V9h1V8z"/>
<path fill="#92808F" d="M16,8h1v1h-1V8z"/>
<path fill="#D6D5D0" d="M17,8h3v1h-1v1h-3V9h1V8z"/>
<path fill="#EFECDC" d="M20,8h61v1H20V8z"/>
<path fill="#92808F" d="M15,9h1v3h-1V9z"/>
<path fill="#EFECDC" d="M19,9h1v7h-1V9z"/>
<path fill="#D6D5D0" d="M20,9h62v8h-1v-3H22v1h-2V9z"/>
<path fill="#AFAFA3" d="M13,10h2v8h-1v6h1v14h1v1h-2v-1h-1V10z"/>
<path fill="#AFAFA3" d="M16,10h3v6h-2v1h-1V10z"/>
<path fill="#9C9989" d="M15,12h1v1h-1V12z"/>
<path fill="#92808F" d="M15,13h1v1h-1V13z"/>
<path fill="#9C9989" d="M15,14h1v3h-1V14z"/>
<path fill="#110918" d="M22,14h4v1h-4V14z"/>
<path fill="#2A2A26" d="M26,14h13v1H26V14z"/>
<path fill="#92808F" d="M39,14h19v1H39V14z"/>
<path fill="#2A2A26" d="M58,14h22v1H58V14z"/>
<path fill="#92808F" d="M80,14h1v3h-1V14z"/>
<path fill="#110918" d="M20,15h2v1h-2V15z"/>
<path fill="#6E3035" d="M22,15h1v1h-1V15z"/>
<path fill="#914935" d="M23,15h1v1h-1V15z"/>
<path fill="#6E3035" d="M24,15h2v1h-1v1h-1v1h-1v1h-2v-1h1v-1h1v-1h1V15z"/>
<path fill="#110918" d="M26,15h1v1h-1V15z"/>
<path fill="#393937" d="M27,15h12v3h19v-3h13v1h-1v1h-2v-1h-1v2h-1v-1h-1v-1h-1v1h-1v-1h-1v3h1v-1h1v1h4v2h1v5h1v2h-1v-1h-8v8h3v1h1
	v1h-7v-3H39v3h-4v-1h1v-1h1v-2h1v-1h-1v-7h-3v-3h-6v2h-2v-4h1v-1h1v-3h-1V15z M39,19v3h19v-3H39z M39,23v3h19v-3H39z M39,27v6h19v-6
	H39z"/>
<path fill="#AFAFA3" d="M39,15h19v2h-1v1H40v-1h-1V15z"/>
<path fill="#110918" d="M71,15h5v1h-5V15z"/>
<path fill="#393937" d="M76,15h4v1h-4V15z"/>
<path fill="#110918" d="M17,16h3v1h-3V16z"/>
<path fill="#6E3035" d="M20,16h1v1h-1V16z"/>
<path fill="#914935" d="M21,16h2v1h-1v1h-1v1h-3v-1h1v-1h2V16z"/>
<path fill="#914935" d="M25,16h2v2h-2v1h-2v-1h1v-1h1V16z"/>
<path fill="#110918" d="M27,16h1v3h-1V16z"/>
<path fill="#9A1B1A" d="M62,16h1v1h-1V16z"/>
<path fill="#D61600" d="M64,16h1v2h1v1h-2V16z"/>
<path fill="#D61600" d="M67,16h1v3h-1V16z"/>
<path fill="#110918" d="M70,16h1v1h-1V16z"/>
<path fill="#914935" d="M71,16h3v1h-2v1h-1v2h-1v-3h1V16z"/>
<path fill="#6E3035" d="M74,16h2v1h4v1h-2v1h-1v-1h-3v1h-1v1h-2v-2h1v-1h2V16z"/>
<path fill="#110918" d="M76,16h4v1h-4V16z"/>
<path fill="#110918" d="M15,17h2v1h-2V17z"/>
<path fill="#6E3035" d="M17,17h2v1h-1v1h-1v1h1v3h-2v1h-1v-6h2V17z"/>
<path fill="#92808F" d="M39,17h1v1h-1V17z"/>
<path fill="#92808F" d="M57,17h1v1h-1V17z"/>
<path fill="#D61600" d="M62,17h1v2h-1V17z"/>
<path fill="#9A1B1A" d="M63,17h1v1h-1V17z"/>
<path fill="#9A1A19" d="M65,17h1v1h-1V17z"/>
<path fill="#9A1A19" d="M68,17h1v1h-1V17z"/>
<path fill="#110918" d="M69,17h1v1h-1V17z"/>
<path fill="#110918" d="M80,17h2v1h-2V17z"/>
<path fill="#110918" d="M14,18h1v6h-1V18z"/>
<path fill="#6E3035" d="M25,18h2v1h-1v1h-1V18z"/>
<path fill="#9A1A19" d="M66,18h1v1h-1V18z"/>
<path fill="#110918" d="M68,18h1v3h-1V18z"/>
<path fill="#6E3035" d="M69,18h1v2h1v1h1v2h-1v-1h-1v-1h-1V18z"/>
<path fill="#EF8F82" d="M74,18h1v1h-1V18z"/>
<path fill="#FFBE9F" d="M75,18h1v1h-1V18z"/>
<path fill="#EF8F82" d="M76,18h1v1h-1V18z"/>
<path fill="#914935" d="M78,18h3v1h1v2h-2v-1h-1v-1h-1V18z"/>
<path fill="#6E3035" d="M81,18h1v1h-1V18z"/>
<path fill="#110918" d="M82,18h1v1h-1V18z"/>
<path fill="#914935" d="M17,19h1v1h-1V19z"/>
<path fill="#6E3035" d="M18,19h1v1h-1V19z"/>
<path fill="#EF8F82" d="M19,19h1v1h-1V19z"/>
<path fill="#FFBE9F" d="M20,19h1v1h-1V19z"/>
<path fill="#FFDFC7" d="M21,19h3v2h-1v-1h-2V19z"/>
<path fill="#FFBE9F" d="M24,19h1v1h-1V19z"/>
<path fill="#110918" d="M26,19h1v1h-1V19z"/>
<path fill="#92808F" d="M39,19h1v1h-1V19z"/>
<path fill="#AFAFA3" d="M40,19h17v1h1v1h-1v1H40v-1h-1v-1h1V19z"/>
<path fill="#92808F" d="M57,19h1v1h-1V19z"/>
<path fill="#EF8F82" d="M73,19h1v1h-1V19z"/>
<path fill="#FFBE9F" d="M74,19h1v1h-1V19z"/>
<path fill="#FFDFC7" d="M75,19h2v2h-3v-1h1V19z"/>
<path fill="#FFBE9F" d="M77,19h1v3h-1V19z"/>
<path fill="#6E3035" d="M78,19h1v1h1v1h2v-2h1v6h-1v1h-1v-2h-1v-1h-1v-2h-1V19z"/>
<path fill="#110918" d="M83,19h1v6h-1V19z"/>
<path fill="#EF8F82" d="M18,20h1v2h-1V20z"/>
<path fill="#FFBE9F" d="M19,20h1v1h-1V20z"/>
<path fill="#6E3035" d="M20,20h2v1h-2V20z"/>
<path fill="#FFBE9F" d="M22,20h1v1h-1V20z"/>
<path fill="#6E3035" d="M24,20h1v1h-1V20z"/>
<path fill="#110918" d="M25,20h1v4h2v1h-2v1h-1v-2h-1v-2h1V20z"/>
<path fill="#914935" d="M71,20h1v1h-1V20z"/>
<path fill="#FFBE9F" d="M72,20h2v1h-1v1h1v1h-2V20z"/>
<path fill="#6E3035" d="M19,21h1v1h-1V21z"/>
<path fill="#EF8F82" d="M20,21h3v2h-1v-1h-1v1h-1V21z"/>
<path fill="#FFBE9F" d="M23,21h1v3h-2v-1h1V21z"/>
<path fill="#EF8F82" d="M24,21h1v1h-1V21z"/>
<path fill="#92808F" d="M39,21h1v1h-1V21z"/>
<path fill="#92808F" d="M57,21h1v1h-1V21z"/>
<path fill="#110918" d="M69,21h1v1h1v1h-1v3h-1V21z"/>
<path fill="#FFDFC7" d="M73,21h1v1h-1V21z"/>
<path fill="#FFBE9F" d="M74,21h1v1h-1V21z"/>
<path fill="#6E3035" d="M75,21h2v1h-2V21z"/>
<path fill="#EF8F82" d="M78,21h1v2h-1V21z"/>
<path fill="#FFBE9F" d="M18,22h2v3h-1v1h-1V22z"/>
<path fill="#110918" d="M21,22h1v2h-1V22z"/>
<path fill="#92808F" d="M28,22h1v1h-1V22z"/>
<path fill="#110918" d="M29,22h3v1h-3V22z"/>
<path fill="#AFAFA3" d="M32,22h1v1h-1V22z"/>
<path fill="#92808F" d="M33,22h1v1h-1V22z"/>
<path fill="#EF8F82" d="M74,22h1v1h-1V22z"/>
<path fill="#FFBE9F" d="M75,22h2v1h-2V22z"/>
<path fill="#6E3035" d="M77,22h1v1h-1V22z"/>
<path fill="#FFBE9F" d="M16,23h1v1h-1V23z"/>
<path fill="#AF525B" d="M17,23h1v2h-1V23z"/>
<path fill="#FFDFC7" d="M20,23h1v2h-1V23z"/>
<path fill="#110918" d="M28,23h1v1h-1V23z"/>
<path fill="#EF8F82" d="M29,23h1v1h-1V23z"/>
<path fill="#FFBE9F" d="M30,23h1v2h-1v1h-1v-2h1V23z"/>
<path fill="#EF8F82" d="M31,23h1v1h-1V23z"/>
<path fill="#110918" d="M32,23h1v3h2v1h-2v1h-4v-1h3v-1h-1v-1h1V23z"/>
<path fill="#DAD9D4" d="M33,23h1v2h2v1h-3V23z"/>
<path fill="#92808F" d="M39,23h1v1h-1V23z"/>
<path fill="#AFAFA3" d="M40,23h17v1h1v1h-1v1H40v-1h-1v-1h1V23z"/>
<path fill="#92808F" d="M57,23h1v1h-1V23z"/>
<path fill="#EFECDC" d="M70,23h1v3h-1V23z"/>
<path fill="#AFAFA3" d="M71,23h1v2h-1V23z"/>
<path fill="#110918" d="M72,23h2v1h-2V23z"/>
<path fill="#EFECDC" d="M74,23h1v3h-1V23z"/>
<path fill="#AFAFA3" d="M75,23h1v2h-1V23z"/>
<path fill="#EFECDC" d="M76,23h1v3h-1V23z"/>
<path fill="#FFFFFF" d="M77,23h1v3h-1V23z"/>
<path fill="#110918" d="M78,23h2v1h-2V23z"/>
<path fill="#110918" d="M15,24h1v2h-1V24z"/>
<path fill="#EF8F82" d="M16,24h1v1h-1V24z"/>
<path fill="#914935" d="M21,24h1v1h-1V24z"/>
<path fill="#FFDFC7" d="M22,24h2v1h-2V24z"/>
<path fill="#914935" d="M24,24h1v1h-1V24z"/>
<path fill="#AF525B" d="M28,24h1v1h-1V24z"/>
<path fill="#AF525B" d="M31,24h1v1h-1V24z"/>
<path fill="#FFBE9F" d="M72,24h2v2h3v1h-5V24z"/>
<path fill="#6E3035" d="M78,24h1v1h-1V24z"/>
<path fill="#AF525B" d="M79,24h1v2h-1V24z"/>
<path fill="#FFBE9F" d="M80,24h1v1h-1V24z"/>
<path fill="#6E3035" d="M16,25h1v1h-1V25z"/>
<path fill="#EF8F82" d="M17,25h1v1h-1V25z"/>
<path fill="#AF525B" d="M19,25h1v1h-1V25z"/>
<path fill="#FFBE9F" d="M20,25h5v1h-5V25z"/>
<path fill="#790E3A" d="M26,25h1v1h-1V25z"/>
<path fill="#B51D4A" d="M27,25h1v1h1v2h-1v-1h-2v-1h1V25z"/>
<path fill="#EF8F82" d="M28,25h1v1h-1V25z"/>
<path fill="#EF8F82" d="M30,25h1v1h-1V25z"/>
<path fill="#92808F" d="M36,25h1v1h-1V25z"/>
<path fill="#92808F" d="M39,25h1v1h-1V25z"/>
<path fill="#92808F" d="M57,25h1v1h-1V25z"/>
<path fill="#AF525B" d="M71,25h1v1h-1V25z"/>
<path fill="#AF525B" d="M75,25h1v1h-1V25z"/>
<path fill="#FFBE9F" d="M78,25h1v2h-1V25z"/>
<path fill="#EF8F82" d="M80,25h1v1h-1V25z"/>
<path fill="#110918" d="M82,25h1v1h-1V25z"/>
<path fill="#9C9989" d="M15,26h1v6h-1V26z"/>
<path fill="#110918" d="M16,26h2v6h-1v-5h-1V26z"/>
<path fill="#EF8F82" d="M18,26h2v1h1v1h-2v-1h-1V26z"/>
<path fill="#AF525B" d="M20,26h4v1h-4V26z"/>
<path fill="#EF8F82" d="M24,26h1v1h-1V26z"/>
<path fill="#790E3A" d="M25,26h1v1h2v1h-1v1h-2v-1h-1v-1h1V26z"/>
<path fill="#EF8F82" d="M29,26h1v1h-1V26z"/>
<path fill="#FFBE9F" d="M30,26h2v1h-2V26z"/>
<path fill="#3F2949" d="M35,26h1v1h-1V26z"/>
<path fill="#AFAFA3" d="M36,26h1v2h-1V26z"/>
<path fill="#110918" d="M70,26h1v1h1v1h-2V26z"/>
<path fill="#EF8F82" d="M71,26h1v1h-1V26z"/>
<path fill="#AF525B" d="M77,26h1v1h-1V26z"/>
<path fill="#EF8F82" d="M79,26h1v1h-1V26z"/>
<path fill="#6E3035" d="M80,26h1v1h-1V26z"/>
<path fill="#110918" d="M81,26h1v1h-1V26z"/>
<path fill="#AFAFA3" d="M16,27h1v5h1v3h1v4h-2v-1h-1V27z"/>
<path fill="#790E3A" d="M18,27h1v2h-1V27z"/>
<path fill="#FFBE9F" d="M21,27h2v1h-2V27z"/>
<path fill="#EF8F82" d="M23,27h1v1h-1V27z"/>
<path fill="#AF525B" d="M33,27h1v1h-1V27z"/>
<path fill="#FFBE9F" d="M34,27h1v1h-1V27z"/>
<path fill="#110918" d="M35,27h1v1h-1V27z"/>
<path fill="#AFAFA3" d="M39,27h1v1h-1V27z"/>
<path fill="#DAD9D4" d="M40,27h17v1h1v4h-1v1H40v-1h-1v-4h1V27z M41,29v3h4v-1h1v-2H41z M51,29v3h4v-1h1v-2H51z"/>
<path fill="#AFAFA3" d="M57,27h1v1h-1V27z"/>
<path fill="#AFAFA3" d="M61,27h1v1h-1V27z"/>
<path fill="#DAD9D4" d="M62,27h6v1h1v1h-2v-1h-4v1h-1v4h1v1h1v1h-2v-1h-1v-6h1V27z"/>
<path fill="#AFAFA3" d="M68,27h1v1h-1V27z"/>
<path fill="#EF8F82" d="M72,27h1v1h-1V27z"/>
<path fill="#AF525B" d="M73,27h1v1h-1V27z"/>
<path fill="#FFFFFF" d="M74,27h2v1h-2V27z"/>
<path fill="#AF525B" d="M76,27h1v1h-1V27z"/>
<path fill="#FFBE9F" d="M77,27h1v1h-1V27z"/>
<path fill="#EF8F82" d="M78,27h1v1h-1V27z"/>
<path fill="#110918" d="M79,27h2v2h-1v-1h-1V27z"/>
<path fill="#D6D5D0" d="M81,27h1v2h-1V27z"/>
<path fill="#B51D4A" d="M19,28h1v1h1v1h2v1h2v-1h1v-1h2v1h-1v1h3v1h-9v-1h-1v1h1v1h1v2h-2v-1h-1v-2h-1v-3h1V28z"/>
<path fill="#E22F49" d="M20,28h3v1h3v1h-1v1h-2v-1h-2v-1h-1V28z"/>
<path fill="#B51D4A" d="M23,28h2v1h-2V28z"/>
<path fill="#110918" d="M27,28h2v1h-2V28z"/>
<path fill="#790E3A" d="M29,28h2v1h-2V28z"/>
<path fill="#B51D4A" d="M31,28h2v3h-1v-2h-1V28z"/>
<path fill="#FFBE9F" d="M33,28h1v1h2v2h-2v-1h-1V28z"/>
<path fill="#EF8F82" d="M34,28h2v1h-2V28z"/>
<path fill="#110918" d="M36,28h1v3h-1V28z"/>
<path fill="#FF442F" d="M63,28h1v1h-1V28z"/>
<path fill="#110918" d="M64,28h3v1h-3V28z"/>
<path fill="#110918" d="M69,28h1v1h-1V28z"/>
<path fill="#EF8F82" d="M70,28h2v1h-2V28z"/>
<path fill="#110918" d="M72,28h1v1h-1V28z"/>
<path fill="#FFBE9F" d="M73,28h4v1h-4V28z"/>
<path fill="#EF8F82" d="M77,28h1v1h-1V28z"/>
<path fill="#699737" d="M78,28h1v1h-1V28z"/>
<path fill="#396E3F" d="M79,28h1v1h1v4h-1v-2h-1v-1h-1v-1h1V28z"/>
<path fill="#E22F49" d="M28,29h4v2h-5v-1h1V29z"/>
<path fill="#110918" d="M41,29h1v2h-1V29z"/>
<path fill="#2A1A31" d="M42,29h4v2h-4V29z"/>
<path fill="#110918" d="M51,29h1v2h-1V29z"/>
<path fill="#2A1A31" d="M52,29h4v2h-4V29z"/>
<path fill="#FF442F" d="M62,29h1v1h-1V29z"/>
<path fill="#110918" d="M63,29h1v1h1v1h-1v2h-1V29z"/>
<path fill="#FFBE9F" d="M64,29h1v1h-1V29z"/>
<path fill="#EF8F82" d="M65,29h1v1h-1V29z"/>
<path fill="#AF525B" d="M66,29h1v1h-1V29z"/>
<path fill="#110918" d="M67,29h2v1h-2V29z"/>
<path fill="#EF8F82" d="M69,29h1v1h-1V29z"/>
<path fill="#AF525B" d="M70,29h1v1h-1V29z"/>
<path fill="#396E3F" d="M71,29h2v1h-2V29z"/>
<path fill="#699737" d="M73,29h2v1h-2V29z"/>
<path fill="#93BD37" d="M75,29h2v1h-1v1h-2v1h-2v1h-1v-3h4V29z"/>
<path fill="#699737" d="M77,29h1v1h1v1h1v2h1v4h-5v-1h1v-2h1v-2h-1v1h-2v1h-2v-1h-1v-1h2v-1h2v-1h1V29z"/>
<path fill="#110918" d="M81,29h1v6h-1V29z"/>
<path fill="#EF8F82" d="M33,30h1v1h-1V30z"/>
<path fill="#D61600" d="M62,30h1v2h-1V30z"/>
<path fill="#AF525B" d="M65,30h1v1h-1V30z"/>
<path fill="#EF8F82" d="M66,30h1v2h-1V30z"/>
<path fill="#FFBE9F" d="M67,30h4v1h-1v1h-3V30z"/>
<path fill="#790E3A" d="M20,31h1v1h-1V31z"/>
<path fill="#790E3A" d="M30,31h3v1h-3V31z"/>
<path fill="#AF525B" d="M33,31h1v1h-1V31z"/>
<path fill="#EF8F82" d="M34,31h1v1h-1V31z"/>
<path fill="#110918" d="M35,31h1v1h-1V31z"/>
<path fill="#2A2A26" d="M36,31h1v1h-1V31z"/>
<path fill="#AFAFA3" d="M41,31h4v1h-4V31z"/>
<path fill="#AFAFA3" d="M51,31h4v1h-4V31z"/>
<path fill="#FFBE9F" d="M64,31h2v1h-1v1h-1V31z"/>
<path fill="#EF8F82" d="M70,31h1v1h-1V31z"/>
<path fill="#92808F" d="M15,32h1v1h-1V32z"/>
<path fill="#110918" d="M18,32h1v3h-1V32z"/>
<path fill="#790E3A" d="M21,32h3v1h1v2h1v1h-2v-1h-2v-2h-1V32z"/>
<path fill="#110918" d="M24,32h11v1h-9v2h-1v-2h-1V32z"/>
<path fill="#2A2A26" d="M35,32h1v2h-1v1h-1v1h-1v1h-6v-2h-1v-2h2v3h2v-1h1v-1h3v-1h1V32z"/>
<path fill="#4B443C" d="M36,32h2v1h-1v2h-1v1h-1v1h-2v-1h1v-1h1v-1h1V32z"/>
<path fill="#AFAFA3" d="M39,32h1v1h-1V32z"/>
<path fill="#AFAFA3" d="M57,32h1v1h-1V32z"/>
<path fill="#FF432E" d="M62,32h1v1h-1V32z"/>
<path fill="#EF8F82" d="M65,32h1v1h-1V32z"/>
<path fill="#AF525B" d="M66,32h1v1h-1V32z"/>
<path fill="#EF8F82" d="M67,32h3v1h-3V32z"/>
<path fill="#AF525B" d="M70,32h1v1h-1V32z"/>
<path fill="#396E3F" d="M77,32h1v2h-1v2h-1v-1h-1v-2h2V32z"/>
<path fill="#9C9989" d="M15,33h1v1h-1V33z"/>
<path fill="#92808F" d="M28,33h1v1h-1V33z"/>
<path fill="#AFAFA3" d="M29,33h4v1h-4V33z"/>
<path fill="#92808F" d="M33,33h1v1h-1V33z"/>
<path fill="#FF432E" d="M63,33h1v1h-1V33z"/>
<path fill="#110918" d="M64,33h7v1h-7V33z"/>
<path fill="#396E3F" d="M71,33h2v1h-2V33z"/>
<path fill="#92808F" d="M15,34h1v4h-1V34z"/>
<path fill="#E22F49" d="M19,34h1v1h-1V34z"/>
<path fill="#393937" d="M28,34h3v1h-1v1h-2V34z"/>
<path fill="#92808F" d="M39,34h1v1h-1V34z"/>
<path fill="#AFAFA3" d="M40,34h17v1h1v2H39v-2h1V34z"/>
<path fill="#92808F" d="M57,34h1v1h-1V34z"/>
<path fill="#AFAFA3" d="M61,34h1v1h-1V34z"/>
<path fill="#AFAFA3" d="M64,34h4v1h-4V34z"/>
<path fill="#92808F" d="M68,34h1v1h-1V34z"/>
<path fill="#393937" d="M69,34h2v1h2v2h-2v-1h-2V34z"/>
<path fill="#110918" d="M71,34h4v1h-4V34z"/>
<path fill="#110918" d="M19,35h1v5h-1V35z"/>
<path fill="#E22F49" d="M20,35h2v1h-2V35z"/>
<path fill="#B51D4A" d="M22,35h2v1h-2V35z"/>
<path fill="#110918" d="M26,35h1v3h-1V35z"/>
<path fill="#2A2A26" d="M64,35h5v1h2v1h-6v-1h-1V35z"/>
<path fill="#2A2A26" d="M73,35h2v2h-2V35z"/>
<path fill="#110918" d="M75,35h1v3h-1V35z"/>
<path fill="#396E3F" d="M81,35h1v2h-1V35z"/>
<path fill="#110918" d="M82,35h1v4h-1V35z"/>
<path fill="#383881" d="M20,36h6v2h1v2h1v4h-1v1h-1v-3h-1v-2h-1v-1h1v-2h-4v1h-1V36z"/>
<path fill="#316AA9" d="M21,37h4v1h-2v1h-1v2h-1v1h-2v-2h1v-2h1V37z"/>
<path fill="#AFAFA3" d="M27,37h5v1h-1v1h-3v-1h-1V37z"/>
<path fill="#D6D5D0" d="M32,37h34v1h2v1H31v-1h1V37z"/>
<path fill="#AFAFA3" d="M66,37h5v1h2v-1h2v1h-1v1h-6v-1h-2V37z"/>
<path fill="#D6D5D0" d="M71,37h2v1h-2V37z"/>
<path fill="#2A2A26" d="M76,37h1v1h-1V37z"/>
<path fill="#4B443C" d="M77,37h3v2h-1v1h-2v1h-1v1h-2v-2h1v-1h1v-1h1V37z"/>
<path fill="#2A2A26" d="M80,37h2v2h1v3h1v1h1v2h-2v-1h-1v-1h-1v-1h-1v-1h2v-1h-3v-1h1V37z"/>
<path fill="#92808F" d="M16,38h1v1h-1V38z"/>
<path fill="#110918" d="M23,38h2v1h-1v1h-1V38z"/>
<path fill="#110918" d="M27,38h1v2h-1V38z"/>
<path fill="#110918" d="M74,38h1v2h-1V38z"/>
<path fill="#2A2A26" d="M75,38h1v1h-1V38z"/>
<path fill="#383881" d="M22,39h1v1h-1V39z"/>
<path fill="#2A1A31" d="M29,39h3v1h2v1h2v1h1v1h-3v-1h-2v-1h-2v-1h-1V39z"/>
<path fill="#110918" d="M83,39h1v3h-1V39z"/>
<path fill="#110918" d="M18,40h1v2h-1V40z"/>
<path fill="#110918" d="M22,40h1v2h-1V40z"/>
<path fill="#110918" d="M24,40h1v2h-1V40z"/>
<path fill="#110918" d="M28,40h1v5h1v1h-5v-4h1v3h1v-1h1V40z"/>
<path fill="#110918" d="M73,40h1v4h1v1h1v-2h1v3h-5v-1h1V40z"/>
<path fill="#2A2A26" d="M77,40h1v1h-1V40z"/>
<path fill="#110918" d="M78,40h4v1h-2v1h-1v-1h-1V40z"/>
<path fill="#383881" d="M21,41h1v1h-1V41z"/>
<path fill="#110918" d="M55,41h1v1h-1V41z"/>
<path fill="#2A1A31" d="M56,41h4v1h-2v1h-3v-1h1V41z"/>
<path fill="#110918" d="M60,41h1v1h-1V41z"/>
<path fill="#2A2A26" d="M76,41h1v2h-1v2h-1v-1h-1v-2h2V41z"/>
<path fill="#110918" d="M77,41h1v2h-1V41z"/>
<path fill="#110918" d="M17,42h1v1h-1V42z"/>
<path fill="#383881" d="M18,42h3v1h-1v1h-2v1h-1v-2h1V42z"/>
<path fill="#110918" d="M21,42h1v1h-1V42z"/>
<path fill="#110918" d="M37,42h3v1h11v1h-2v1h-9v-1h-4v-1h1V42z"/>
<path fill="#110918" d="M54,42h1v1h-1V42z"/>
<path fill="#3F2949" d="M58,42h1v1h-1V42z"/>
<path fill="#110918" d="M59,42h1v1h-1V42z"/>
<path fill="#2A1A31" d="M60,42h2v1h-1v1h-2v-1h1V42z"/>
<path fill="#110918" d="M62,42h1v3h-1v1h-2v-2h1v-1h1V42z"/>
<path fill="#110918" d="M80,42h1v1h-1V42z"/>
<path fill="#110918" d="M84,42h1v1h-1V42z"/>
<path fill="#736060" d="M12,43h4v3h5v-3h4v3h5v1H15v-1h-2v-1h-1V43z"/>
<path fill="#110918" d="M16,43h1v2h1v-1h2v-1h1v3h-5V43z"/>
<path fill="#736060" d="M29,43h7v1h4v1h13v1H30v-1h-1V43z"/>
<path fill="#2A1A31" d="M51,43h2v2h-4v-1h2V43z"/>
<path fill="#110918" d="M53,43h1v3h-1V43z"/>
<path fill="#3F2949" d="M54,43h4v1h-4V43z"/>
<path fill="#110918" d="M58,43h1v1h-1V43z"/>
<path fill="#736060" d="M63,43h10v2h-1v1h5v-3h2v1h2v2h4v1H66v-1h-4v-1h1V43z"/>
<path fill="#110918" d="M81,43h1v1h1v1h2v-2h1v3h-5V43z"/>
<path fill="#2A1A31" d="M54,44h2v2h-2V44z"/>
<path fill="#110918" d="M56,44h2v2h-2V44z"/>
<path fill="#3F2949" d="M58,44h2v1h-1v1h-1V44z"/>
<path fill="#2A1A31" d="M59,45h1v1h-1V45z"/>
</svg>
